<svg xmlns="http://www.w3.org/2000/svg" xmlns:xlink="http://www.w3.org/1999/xlink" contentStyleType="text/css" data-diagram-type="ACTIVITY" height="376px" preserveAspectRatio="none" style="width:614px;height:376px;background:#FFFFFF;" version="1.1" viewBox="0 0 614 376" width="614px" zoomAndPan="magnify"><defs/><g><ellipse cx="424.0404" cy="20" fill="#222222" rx="10" ry="10" style="stroke:#222222;stroke-width:1;"/><rect fill="#F1F1F1" height="33.9688" rx="12.5" ry="12.5" style="stroke:#181818;stroke-width:0.5;" width="150.8281" x="348.6263" y="50"/><text fill="#000000" font-family="sans-serif" font-size="12" lengthAdjust="spacing" textLength="130.8281" x="358.6263" y="71.1387">Se pushea un commit</text><rect fill="#F1F1F1" height="33.9688" rx="12.5" ry="12.5" style="stroke:#181818;stroke-width:0.5;" width="175.0684" x="336.5062" y="103.9688"/><text fill="#000000" font-family="sans-serif" font-size="12" lengthAdjust="spacing" textLength="155.0684" x="346.5062" y="125.1074">GitHub Actions se ejecuta</text><polygon fill="#F1F1F1" points="379.6698,157.9375,468.411,157.9375,480.411,169.9375,468.411,181.9375,379.6698,181.9375,367.6698,169.9375,379.6698,157.9375" style="stroke:#181818;stroke-width:0.5;"/><text fill="#000000" font-family="sans-serif" font-size="11" lengthAdjust="spacing" textLength="88.7412" x="379.6698" y="173.7456">Pasa las Actions</text><text fill="#000000" font-family="sans-serif" font-size="11" lengthAdjust="spacing" textLength="8.7871" x="358.8827" y="167.3433">si</text><text fill="#000000" font-family="sans-serif" font-size="11" lengthAdjust="spacing" textLength="13.7017" x="480.411" y="167.3433">no</text><polygon fill="#F1F1F1" points="221.8237,191.9375,372.0801,191.9375,384.0801,203.9375,372.0801,215.9375,221.8237,215.9375,209.8237,203.9375,221.8237,191.9375" style="stroke:#181818;stroke-width:0.5;"/><text fill="#000000" font-family="sans-serif" font-size="11" lengthAdjust="spacing" textLength="150.2563" x="221.8237" y="207.7456">Pasa las pruebas manuales</text><text fill="#000000" font-family="sans-serif" font-size="11" lengthAdjust="spacing" textLength="8.7871" x="201.0366" y="201.3433">si</text><text fill="#000000" font-family="sans-serif" font-size="11" lengthAdjust="spacing" textLength="13.7017" x="384.0801" y="201.3433">no</text><polygon fill="#F1F1F1" points="118.9675,225.9375,235.5901,225.9375,247.5901,237.9375,235.5901,249.9375,118.9675,249.9375,106.9675,237.9375,118.9675,225.9375" style="stroke:#181818;stroke-width:0.5;"/><text fill="#000000" font-family="sans-serif" font-size="11" lengthAdjust="spacing" textLength="116.6226" x="118.9675" y="241.7456">Desarrollo terminado</text><text fill="#000000" font-family="sans-serif" font-size="11" lengthAdjust="spacing" textLength="8.7871" x="98.1804" y="235.3433">si</text><text fill="#000000" font-family="sans-serif" font-size="11" lengthAdjust="spacing" textLength="13.7017" x="247.5901" y="235.3433">no</text><rect fill="#F1F1F1" height="33.9688" rx="12.5" ry="12.5" style="stroke:#181818;stroke-width:0.5;" width="160.8711" x="11" y="259.9375"/><text fill="#000000" font-family="sans-serif" font-size="12" lengthAdjust="spacing" textLength="140.8711" x="21" y="281.0762">Hacer merge a develop</text><rect fill="#F1F1F1" height="33.9688" rx="12.5" ry="12.5" style="stroke:#181818;stroke-width:0.5;" width="142.502" x="191.8711" y="259.9375"/><text fill="#000000" font-family="sans-serif" font-size="12" lengthAdjust="spacing" textLength="122.502" x="201.8711" y="281.0762">Continuar desarrollo</text><polygon fill="#F1F1F1" points="177.2788,299.9063,189.2788,311.9063,177.2788,323.9063,165.2788,311.9063,177.2788,299.9063" style="stroke:#181818;stroke-width:0.5;"/><rect fill="#F1F1F1" height="33.9688" rx="12.5" ry="12.5" style="stroke:#181818;stroke-width:0.5;" width="104.5039" x="364.373" y="225.9375"/><text fill="#000000" font-family="sans-serif" font-size="12" lengthAdjust="spacing" textLength="84.5039" x="374.373" y="247.0762">Pedir cambios</text><ellipse cx="416.625" cy="305.9063" fill="#FFFFFF" fill-opacity="0.00000" rx="11" ry="11" style="stroke:#222222;stroke-width:1;"/><ellipse cx="416.625" cy="305.9063" fill="#222222" rx="6" ry="6" style="stroke:#222222;stroke-width:1;"/><rect fill="#F1F1F1" height="33.9688" rx="12.5" ry="12.5" style="stroke:#181818;stroke-width:0.5;" width="104.5039" x="498.877" y="191.9375"/><text fill="#000000" font-family="sans-serif" font-size="12" lengthAdjust="spacing" textLength="84.5039" x="508.877" y="213.0762">Pedir cambios</text><ellipse cx="551.1289" cy="271.9063" fill="#FFFFFF" fill-opacity="0.00000" rx="11" ry="11" style="stroke:#222222;stroke-width:1;"/><ellipse cx="551.1289" cy="271.9063" fill="#222222" rx="6" ry="6" style="stroke:#222222;stroke-width:1;"/><ellipse cx="424.0404" cy="354.9063" fill="#FFFFFF" fill-opacity="0.00000" rx="11" ry="11" style="stroke:#222222;stroke-width:1;"/><ellipse cx="424.0404" cy="354.9063" fill="#222222" rx="6" ry="6" style="stroke:#222222;stroke-width:1;"/><line style="stroke:#181818;stroke-width:1;" x1="424.0404" x2="424.0404" y1="30" y2="50"/><polygon fill="#181818" points="420.0404,40,424.0404,50,428.0404,40,424.0404,44" style="stroke:#181818;stroke-width:1;"/><line style="stroke:#181818;stroke-width:1;" x1="424.0404" x2="424.0404" y1="83.9688" y2="103.9688"/><polygon fill="#181818" points="420.0404,93.9688,424.0404,103.9688,428.0404,93.9688,424.0404,97.9688" style="stroke:#181818;stroke-width:1;"/><line style="stroke:#181818;stroke-width:1;" x1="106.9675" x2="91.4355" y1="237.9375" y2="237.9375"/><line style="stroke:#181818;stroke-width:1;" x1="91.4355" x2="91.4355" y1="237.9375" y2="259.9375"/><polygon fill="#181818" points="87.4355,249.9375,91.4355,259.9375,95.4355,249.9375,91.4355,253.9375" style="stroke:#181818;stroke-width:1;"/><line style="stroke:#181818;stroke-width:1;" x1="247.5901" x2="263.1221" y1="237.9375" y2="237.9375"/><line style="stroke:#181818;stroke-width:1;" x1="263.1221" x2="263.1221" y1="237.9375" y2="259.9375"/><polygon fill="#181818" points="259.1221,249.9375,263.1221,259.9375,267.1221,249.9375,263.1221,253.9375" style="stroke:#181818;stroke-width:1;"/><line style="stroke:#181818;stroke-width:1;" x1="91.4355" x2="91.4355" y1="293.9063" y2="311.9063"/><line style="stroke:#181818;stroke-width:1;" x1="91.4355" x2="165.2788" y1="311.9063" y2="311.9063"/><polygon fill="#181818" points="155.2788,307.9063,165.2788,311.9063,155.2788,315.9063,159.2788,311.9063" style="stroke:#181818;stroke-width:1;"/><line style="stroke:#181818;stroke-width:1;" x1="263.1221" x2="263.1221" y1="293.9063" y2="311.9063"/><line style="stroke:#181818;stroke-width:1;" x1="263.1221" x2="189.2788" y1="311.9063" y2="311.9063"/><polygon fill="#181818" points="199.2788,307.9063,189.2788,311.9063,199.2788,315.9063,195.2788,311.9063" style="stroke:#181818;stroke-width:1;"/><line style="stroke:#181818;stroke-width:1;" x1="416.625" x2="416.625" y1="259.9063" y2="294.9063"/><polygon fill="#181818" points="412.625,284.9063,416.625,294.9063,420.625,284.9063,416.625,288.9063" style="stroke:#181818;stroke-width:1;"/><line style="stroke:#181818;stroke-width:1;" x1="209.8237" x2="177.2788" y1="203.9375" y2="203.9375"/><line style="stroke:#181818;stroke-width:1;" x1="177.2788" x2="177.2788" y1="203.9375" y2="225.9375"/><polygon fill="#181818" points="173.2788,215.9375,177.2788,225.9375,181.2788,215.9375,177.2788,219.9375" style="stroke:#181818;stroke-width:1;"/><line style="stroke:#181818;stroke-width:1;" x1="384.0801" x2="416.625" y1="203.9375" y2="203.9375"/><line style="stroke:#181818;stroke-width:1;" x1="416.625" x2="416.625" y1="203.9375" y2="225.9375"/><polygon fill="#181818" points="412.625,215.9375,416.625,225.9375,420.625,215.9375,416.625,219.9375" style="stroke:#181818;stroke-width:1;"/><line style="stroke:#181818;stroke-width:1;" x1="177.2788" x2="177.2788" y1="323.9063" y2="328.9063"/><line style="stroke:#181818;stroke-width:1;" x1="177.2788" x2="424.0404" y1="328.9063" y2="328.9063"/><line style="stroke:#181818;stroke-width:1;" x1="424.0404" x2="424.0404" y1="328.9063" y2="343.9063"/><polygon fill="#181818" points="420.0404,333.9063,424.0404,343.9063,428.0404,333.9063,424.0404,337.9063" style="stroke:#181818;stroke-width:1;"/><line style="stroke:#181818;stroke-width:1;" x1="551.1289" x2="551.1289" y1="225.9063" y2="260.9063"/><polygon fill="#181818" points="547.1289,250.9063,551.1289,260.9063,555.1289,250.9063,551.1289,254.9063" style="stroke:#181818;stroke-width:1;"/><line style="stroke:#181818;stroke-width:1;" x1="367.6698" x2="296.9519" y1="169.9375" y2="169.9375"/><line style="stroke:#181818;stroke-width:1;" x1="296.9519" x2="296.9519" y1="169.9375" y2="191.9375"/><polygon fill="#181818" points="292.9519,181.9375,296.9519,191.9375,300.9519,181.9375,296.9519,185.9375" style="stroke:#181818;stroke-width:1;"/><line style="stroke:#181818;stroke-width:1;" x1="480.411" x2="551.1289" y1="169.9375" y2="169.9375"/><line style="stroke:#181818;stroke-width:1;" x1="551.1289" x2="551.1289" y1="169.9375" y2="191.9375"/><polygon fill="#181818" points="547.1289,181.9375,551.1289,191.9375,555.1289,181.9375,551.1289,185.9375" style="stroke:#181818;stroke-width:1;"/><line style="stroke:#181818;stroke-width:1;" x1="424.0404" x2="424.0404" y1="137.9375" y2="157.9375"/><polygon fill="#181818" points="420.0404,147.9375,424.0404,157.9375,428.0404,147.9375,424.0404,151.9375" style="stroke:#181818;stroke-width:1;"/><!--SRC=[RSx1Ri8m383XUvx2n_8AxGaDQHoHU08tDSDJ4bUsm_Cl1HN6Lb-Sm_yfDaVrq9y9vcfNGgW5ekJCFeJ-a_rOHzX7Poa6Ha3V5AlZ4FW2tGaD8Q6jmGxyIWKwurs0Dc_Dh9N6jZEMYed-nIiuaA6gf2JWf9aBJhBLBjCVCP929lqYG9ZeHadcuTbGQYTtHVwe3odExGfjOlti5oeJNy8sxqyqiKB4FBBOovZB75xu7MwXEtZ4o_C7]--></g></svg>