<svg xmlns="http://www.w3.org/2000/svg" xmlns:xlink="http://www.w3.org/1999/xlink" contentStyleType="text/css" data-diagram-type="DESCRIPTION" height="573px" preserveAspectRatio="none" style="width:412px;height:573px;background:#FFFFFF;" version="1.1" viewBox="0 0 412 573" width="412px" zoomAndPan="magnify"><defs/><g><!--cluster Docker--><g id="cluster_Docker"><path d="M29.5,248.6 L85.748,248.6 A3.75,3.75 0 0 1 88.248,251.1 L95.248,270.8969 L402.5,270.8969 A2.5,2.5 0 0 1 405,273.3969 L405,563.69 A2.5,2.5 0 0 1 402.5,566.19 L29.5,566.19 A2.5,2.5 0 0 1 27,563.69 L27,251.1 A2.5,2.5 0 0 1 29.5,248.6 " fill="#FFFFFF" fill-opacity="0.00000" style="stroke:#000000;stroke-width:1.5;"/><line style="stroke:#000000;stroke-width:1.5;" x1="27" x2="95.248" y1="270.8969" y2="270.8969"/><text fill="#000000" font-family="sans-serif" font-size="14" font-weight="bold" lengthAdjust="spacing" textLength="55.248" x="31" y="263.5951">Docker</text></g><!--cluster Ollama--><g id="cluster_Ollama"><polygon fill="#FFFFFF" fill-opacity="0.00000" points="51,327.6,61,317.6,185,317.6,185,409.89,175,419.89,51,419.89,51,327.6" style="stroke:#181818;stroke-width:1;"/><line style="stroke:#181818;stroke-width:1;" x1="175" x2="185" y1="327.6" y2="317.6"/><line style="stroke:#181818;stroke-width:1;" x1="51" x2="175" y1="327.6" y2="327.6"/><line style="stroke:#181818;stroke-width:1;" x1="175" x2="175" y1="327.6" y2="419.89"/><text fill="#000000" font-family="sans-serif" font-size="14" font-weight="bold" lengthAdjust="spacing" textLength="54.9814" x="86.5093" y="343.5951">Ollama</text></g><!--cluster MariaDB--><g id="cluster_MariaDB"><path d="M217,309.6 C217,299.6 295,299.6 295,299.6 C295,299.6 373,299.6 373,309.6 L373,524.19 C373,534.19 295,534.19 295,534.19 C295,534.19 217,534.19 217,524.19 L217,309.6 " fill="#FFFFFF" fill-opacity="0.00000" style="stroke:#181818;stroke-width:1;"/><path d="M217,309.6 C217,319.6 295,319.6 295,319.6 C295,319.6 373,319.6 373,309.6 " fill="#FFFFFF" fill-opacity="0.00000" style="stroke:#181818;stroke-width:1;"/><text fill="#000000" font-family="sans-serif" font-size="14" font-weight="bold" lengthAdjust="spacing" textLength="66.8213" x="261.5894" y="334.5951">MariaDB</text></g><!--cluster Frontend--><g id="cluster_Frontend"><path d="M8.5,6 L81.7285,6 A3.75,3.75 0 0 1 84.2285,8.5 L91.2285,28.2969 L340.5,28.2969 A2.5,2.5 0 0 1 343,30.7969 L343,100.8 A2.5,2.5 0 0 1 340.5,103.3 L8.5,103.3 A2.5,2.5 0 0 1 6,100.8 L6,8.5 A2.5,2.5 0 0 1 8.5,6 " fill="#FFFFFF" fill-opacity="0.00000" style="stroke:#000000;stroke-width:1.5;"/><line style="stroke:#000000;stroke-width:1.5;" x1="6" x2="91.2285" y1="28.2969" y2="28.2969"/><text fill="#000000" font-family="sans-serif" font-size="14" font-weight="bold" lengthAdjust="spacing" textLength="72.2285" x="10" y="20.9951">Frontend</text></g><!--cluster Backend--><g id="cluster_Backend"><path d="M102.5,127.3 L170.7109,127.3 A3.75,3.75 0 0 1 173.2109,129.8 L180.2109,149.5969 L348.5,149.5969 A2.5,2.5 0 0 1 351,152.0969 L351,222.1 A2.5,2.5 0 0 1 348.5,224.6 L102.5,224.6 A2.5,2.5 0 0 1 100,222.1 L100,129.8 A2.5,2.5 0 0 1 102.5,127.3 " fill="#FFFFFF" fill-opacity="0.00000" style="stroke:#000000;stroke-width:1.5;"/><line style="stroke:#000000;stroke-width:1.5;" x1="100" x2="180.2109" y1="149.5969" y2="149.5969"/><text fill="#000000" font-family="sans-serif" font-size="14" font-weight="bold" lengthAdjust="spacing" textLength="67.2109" x="104" y="142.2951">Backend</text></g><!--entity ollamaApi--><g id="elem_ollamaApi"><rect fill="#F1F1F1" height="46.2969" rx="2.5" ry="2.5" style="stroke:#181818;stroke-width:0.5;" width="102.6104" x="66.69" y="357.6"/><rect fill="#F1F1F1" height="10" style="stroke:#181818;stroke-width:0.5;" width="15" x="149.3004" y="362.6"/><rect fill="#F1F1F1" height="2" style="stroke:#181818;stroke-width:0.5;" width="4" x="147.3004" y="364.6"/><rect fill="#F1F1F1" height="2" style="stroke:#181818;stroke-width:0.5;" width="4" x="147.3004" y="368.6"/><text fill="#000000" font-family="sans-serif" font-size="14" lengthAdjust="spacing" textLength="62.6104" x="81.69" y="390.5951">REST API</text></g><!--entity Cursos--><g id="elem_Cursos"><rect fill="#F1F1F1" height="46.2969" rx="2.5" ry="2.5" style="stroke:#181818;stroke-width:0.5;" width="87.5576" x="242.22" y="357.6"/><rect fill="#F1F1F1" height="10" style="stroke:#181818;stroke-width:0.5;" width="15" x="309.7776" y="362.6"/><rect fill="#F1F1F1" height="2" style="stroke:#181818;stroke-width:0.5;" width="4" x="307.7776" y="364.6"/><rect fill="#F1F1F1" height="2" style="stroke:#181818;stroke-width:0.5;" width="4" x="307.7776" y="368.6"/><text fill="#000000" font-family="sans-serif" font-size="14" lengthAdjust="spacing" textLength="47.5576" x="257.22" y="390.5951">Cursos</text></g><!--entity Usuarios--><g id="elem_Usuarios"><rect fill="#F1F1F1" height="46.2969" rx="2.5" ry="2.5" style="stroke:#181818;stroke-width:0.5;" width="100.498" x="240.75" y="463.89"/><rect fill="#F1F1F1" height="10" style="stroke:#181818;stroke-width:0.5;" width="15" x="321.248" y="468.89"/><rect fill="#F1F1F1" height="2" style="stroke:#181818;stroke-width:0.5;" width="4" x="319.248" y="470.89"/><rect fill="#F1F1F1" height="2" style="stroke:#181818;stroke-width:0.5;" width="4" x="319.248" y="474.89"/><text fill="#000000" font-family="sans-serif" font-size="14" lengthAdjust="spacing" textLength="60.498" x="255.75" y="496.8851">Usuarios</text></g><!--entity req--><g id="elem_req"><rect fill="#F1F1F1" height="46.2969" rx="2.5" ry="2.5" style="stroke:#181818;stroke-width:0.5;" width="177.5801" x="149.21" y="41"/><rect fill="#F1F1F1" height="10" style="stroke:#181818;stroke-width:0.5;" width="15" x="306.7901" y="46"/><rect fill="#F1F1F1" height="2" style="stroke:#181818;stroke-width:0.5;" width="4" x="304.7901" y="48"/><rect fill="#F1F1F1" height="2" style="stroke:#181818;stroke-width:0.5;" width="4" x="304.7901" y="52"/><text fill="#000000" font-family="sans-serif" font-size="14" lengthAdjust="spacing" textLength="137.5801" x="164.21" y="73.9951">Petición del usuario</text></g><!--entity Display--><g id="elem_Display"><rect fill="#F1F1F1" height="46.2969" rx="2.5" ry="2.5" style="stroke:#181818;stroke-width:0.5;" width="91.6045" x="22.2" y="41"/><rect fill="#F1F1F1" height="10" style="stroke:#181818;stroke-width:0.5;" width="15" x="93.8045" y="46"/><rect fill="#F1F1F1" height="2" style="stroke:#181818;stroke-width:0.5;" width="4" x="91.8045" y="48"/><rect fill="#F1F1F1" height="2" style="stroke:#181818;stroke-width:0.5;" width="4" x="91.8045" y="52"/><text fill="#000000" font-family="sans-serif" font-size="14" lengthAdjust="spacing" textLength="51.6045" x="37.2" y="73.9951">Display</text></g><!--entity Java HTTP--><g id="elem_Java HTTP"><rect fill="#F1F1F1" height="46.2969" rx="2.5" ry="2.5" style="stroke:#181818;stroke-width:0.5;" width="110.0957" x="115.95" y="162.3"/><rect fill="#F1F1F1" height="10" style="stroke:#181818;stroke-width:0.5;" width="15" x="206.0457" y="167.3"/><rect fill="#F1F1F1" height="2" style="stroke:#181818;stroke-width:0.5;" width="4" x="204.0457" y="169.3"/><rect fill="#F1F1F1" height="2" style="stroke:#181818;stroke-width:0.5;" width="4" x="204.0457" y="173.3"/><text fill="#000000" font-family="sans-serif" font-size="14" lengthAdjust="spacing" textLength="70.0957" x="130.95" y="195.2951">Java HTTP</text></g><!--entity JDBC--><g id="elem_JDBC"><rect fill="#F1F1F1" height="46.2969" rx="2.5" ry="2.5" style="stroke:#181818;stroke-width:0.5;" width="74.2891" x="260.86" y="162.3"/><rect fill="#F1F1F1" height="10" style="stroke:#181818;stroke-width:0.5;" width="15" x="315.1491" y="167.3"/><rect fill="#F1F1F1" height="2" style="stroke:#181818;stroke-width:0.5;" width="4" x="313.1491" y="169.3"/><rect fill="#F1F1F1" height="2" style="stroke:#181818;stroke-width:0.5;" width="4" x="313.1491" y="173.3"/><text fill="#000000" font-family="sans-serif" font-size="14" lengthAdjust="spacing" textLength="34.2891" x="275.86" y="195.2951">JDBC</text></g><!--link ollamaApi to Java HTTP--><g id="link_ollamaApi_Java HTTP"><path d="M125.7267,351.5536 C135.9167,314.3936 153.0125,252.0362 163.2325,214.7862 " fill="#FFFFFF" fill-opacity="0.00000" id="ollamaApi-Java HTTP" style="stroke:#181818;stroke-width:1;"/><polygon fill="#181818" points="124.14,357.34,130.3777,349.7182,125.4623,352.518,122.6625,347.6026,124.14,357.34" style="stroke:#181818;stroke-width:1;"/><polygon fill="#181818" points="164.82,209,158.5813,216.6209,163.4971,213.8218,166.2962,218.7376,164.82,209" style="stroke:#181818;stroke-width:1;"/></g><!--link JDBC to MariaDB--><g id="link_JDBC_MariaDB"><path d="M335.8682,212.9733 C345.8982,221.6033 351.22,228.41 357,240.6 C363.5325,254.3725 367.3344,269.7931 369.3539,285.2166 C369.8588,289.0724 370.2523,292.9285 370.5492,296.759 C370.5863,297.2378 370.6219,297.7162 370.656,298.1942 C370.6731,298.4331 370.2805,292.686 370.2968,292.9247 " fill="#FFFFFF" fill-opacity="0.00000" id="JDBC-MariaDB" style="stroke:#181818;stroke-width:1;"/><polygon fill="#181818" points="331.32,209.06,335.5334,217.9621,335.1101,212.3211,340.7511,211.8979,331.32,209.06" style="stroke:#181818;stroke-width:1;"/><polygon fill="#181818" points="370.7061,298.9108,374.0828,289.6588,370.365,293.9224,366.1014,290.2046,370.7061,298.9108" style="stroke:#181818;stroke-width:1;"/></g><!--link req to Java HTTP--><g id="link_req_Java HTTP"><path d="M225.4,87.59 C213.42,108.92 198.4476,135.5783 186.4876,156.8783 " fill="#FFFFFF" fill-opacity="0.00000" id="req-to-Java HTTP" style="stroke:#181818;stroke-width:1;"/><polygon fill="#181818" points="183.55,162.11,191.4442,156.2209,185.998,157.7503,184.4686,152.3041,183.55,162.11" style="stroke:#181818;stroke-width:1;"/></g><!--link Java HTTP to JDBC--><g id="link_Java HTTP_JDBC"><path d="M232.07,185.45 C243.59,185.45 243.11,185.45 254.63,185.45 " fill="#FFFFFF" fill-opacity="0.00000" id="Java HTTP-JDBC" style="stroke:#181818;stroke-width:1;"/><polygon fill="#181818" points="226.07,185.45,235.07,189.45,231.07,185.45,235.07,181.45,226.07,185.45" style="stroke:#181818;stroke-width:1;"/><polygon fill="#181818" points="260.63,185.45,251.63,181.45,255.63,185.45,251.63,189.45,260.63,185.45" style="stroke:#181818;stroke-width:1;"/></g><!--link Java HTTP to Display--><g id="link_Java HTTP_Display"><path d="M147.7902,157.5674 C129.4102,136.2674 109.7116,113.4611 91.2916,92.1311 " fill="#FFFFFF" fill-opacity="0.00000" id="Java HTTP-Display" style="stroke:#181818;stroke-width:1;"/><polygon fill="#181818" points="151.71,162.11,148.8586,152.6829,148.4435,158.3245,142.8019,157.9094,151.71,162.11" style="stroke:#181818;stroke-width:1;"/><polygon fill="#181818" points="87.37,87.59,90.2249,97.016,90.638,91.3742,96.2797,91.7873,87.37,87.59" style="stroke:#181818;stroke-width:1;"/></g><!--link Cursos to Usuarios--><!--SRC=[PL3DYi8m43udJp5uxniiWcrtKK4iRZsL76QReA4rgKcxi2nzAX_15pDDRLIyVVFzpJ0DbXKU1CnINLR2pE2V4gMv8xPrZIVq12bsdzyvBB8L0xIWlR9e92Kz9PHmRF47hSjiq4XCutiewOpLbWrmRpid-Q6dFQNDjFRBQDKAnNsao4GhItczAE2YXcuC-Pr6d9sUIjlK-CTUAc87GiCQVn6MUPwnOKZZn7l3nV0HHNDuTescaG_tKxSEtfq1E_kW-VetEXmvFG2YuYWv5uf5yFZ43G00]--></g></svg>